<?xml version="1.0" encoding="utf-8"?>
<!-- Generator: Adobe Illustrator 25.0.1, SVG Export Plug-In . SVG Version: 6.00 Build 0)  -->
<svg version="1.1" id="Layer_1" xmlns="http://www.w3.org/2000/svg" xmlns:xlink="http://www.w3.org/1999/xlink" x="0px" y="0px"
	 viewBox="0 0 856.6 1024" style="enable-background:new 0 0 856.6 1024;" xml:space="preserve">
<style type="text/css">
	.st0{fill:#1B9CD8;}
	.st1{fill:#A2C31A;}
	.st2{fill:#333333;}
	.st3{fill:#FFFFFF;}
</style>
<g>
	<g>
		<path class="st0" d="M307.9,373.7c29.1,5,59.5,12.6,90.4,23c-23.7,10.2-47.4,21.7-70.8,34.4c-6.6,3.6-13.1,7.3-19.6,11v24.4
			c9.7-5.8,19.6-11.5,29.6-16.9c29.9-16.3,60.4-30.4,90.8-42.1c30.3,11.7,60.9,25.8,90.8,42.1c19.6,10.7,38.3,21.9,56.1,33.5v-25.2
			c-14.8-9.2-30.2-18.2-46-26.8c-23.4-12.7-47.1-24.1-70.8-34.4c40.4-13.6,80-22.6,116.9-26.8v-25.3c-46.5,6.7-96.4,20.2-146.9,39.7
			c-41-15.8-81.6-27.7-120.4-35.2V373.7z"/>
		<path class="st0" d="M519.1,783.5c-29.9,16.3-60.4,30.4-90.8,42.1c-30.3-11.7-60.8-25.8-90.8-42.1c-10.1-5.5-19.9-11.1-29.6-16.9
			v6.7c0,6.1,0.1,12.1,0.4,17.9c6.4,3.7,12.7,7.3,19.2,10.8c23.4,12.7,47.1,24.1,70.8,34.4c-27.8,9.3-55.2,16.5-81.6,21.5
			c2,8.1,4.2,15.7,6.8,22.8c34-7.5,69.3-18.2,104.8-32c44.2,17.1,88.1,29.6,129.6,36.9c2.8-7.1,5.3-15,7.5-23.7
			c-34.1-4.6-70.2-13.2-107.1-25.6c23.7-10.2,47.4-21.7,70.8-34.4c15.8-8.6,31.1-17.5,45.9-26.7c0.1-4.1,0.2-8.2,0.2-12.5V750
			C557.4,761.6,538.7,772.9,519.1,783.5z"/>
		<path class="st0" d="M803.6,412.5c-25.2-46.3-82.3-72.1-161-72.8c0,9,0,18.5,0,28.4c59.8,4.7,103.3,27.2,123.7,64.6
			c24.1,44.4,12.3,102.5-26.9,162.2c-26.5-30.9-59.1-61.5-96.9-90.6c0,9.4,0,18.8,0,28.2c32.5,27.2,60.1,55.5,81.7,83.9
			c-21.6,28.3-49.2,56.7-81.8,83.9c0,10.5,0,20,0,28.2c37.8-29.1,70.5-59.7,97-90.7c39.3,59.7,51.1,117.7,26.9,162.2
			c-21.8,40.1-70.1,63.1-136.7,65.4c-2.6,9.5-5.6,18.6-9.3,27.3c6.5,0.3,13,0.5,19.3,0.5c80.3,0,138.6-25.9,164.1-72.8
			c30-55.2,10.1-129.4-46.8-204C813.7,542,833.6,467.8,803.6,412.5z"/>
		<path class="st0" d="M234.4,865.7c-70.3-0.8-121.4-24-144-65.5c-23.5-43.3-13.8-100.4,27.1-162.2c29.5,34.3,65.8,67.7,107.3,98.5
			v-27.7c-36.3-29.2-67.6-60.4-92-92.3c24.4-31.9,55.7-63.1,92-92.3v-27.7c-41.5,30.9-77.8,64.2-107.3,98.5
			c-40.9-61.8-50.6-119-27.1-162.2c21.5-39.6,69-62.6,134.4-65.3v-27.7c-2.5,0-5.1-0.1-7.6-0.1c-80.3,0-138.6,25.9-164.1,72.8
			c-28.2,51.9-13.5,121.7,41.5,196.7c1.8,2.4,3.7,4.9,5.6,7.3c-1.9,2.4-3.8,4.9-5.6,7.3c-55,74.9-69.7,144.8-41.5,196.7
			c25.5,47,83.8,72.8,164.1,72.8c8.2,0,16.7-0.3,25.3-0.8C239.3,884.1,236.6,875.1,234.4,865.7z"/>
	</g>
	<path class="st1" d="M237.3,334.9c0-30.7-2.2-50.4-6.5-59.1c-3.3-6.7-10.5-10-21.5-10h-15.5c-9.3-0.3-14-1.8-14-4.5c0-4,3.3-6,10-6
		h142.7c7,0,10.5,2,10.5,6c0,1.7-0.7,2.7-2,3l-2,0.5h-1.5c-19.4,0-31.5,5.3-36.5,16c-3.7,7.3-5.5,24.2-5.5,50.6v441.9
		c0,81.1,17.8,137.5,53.6,169.2c13.3,12,29.5,20.5,48.6,25.5c13.7,3.3,29.5,5,47.6,5c11.7,0,24.7-2,39-6
		c39.7-11.7,67.7-36,84.1-73.1c13-30.4,19.5-74.1,19.5-131.1V185.2c0-19.7-2.7-33.7-8-42c-6.7-10.7-19-16-37-16
		c-8.7,0-13-1.5-13-4.5c0-3,3.7-4.5,11-4.5h38.5c7.3,0,16.2-0.2,26.5-0.5h58.1c8.7,0,13,1.8,13,5.5c0,1.3-0.3,2.3-1,3
		c-16.4,0-27.9,3-34.5,9c-7,6-10.5,16.4-10.5,31c0,14.7-0.2,46.7-0.5,96.1c-0.3,49.4-0.5,421.3-0.5,488.4
		c0,41.4-3.8,77.6-11.5,108.6c-10.7,42.1-32.7,75.4-66.1,100.1C517.8,985.2,475.7,998,426,998h-9c-4.3-0.3-8.7-0.7-13-1
		c-11.7-1.3-22.9-3.3-33.5-6c-31-8-56.1-21.5-75.1-40.5c-16.7-14.7-29.7-33.5-39-56.6c-12.7-31.4-19-70.6-19-117.6V334.9z"/>
	<path class="st1" d="M457.1,39c8.7,8.7,13,19,13,31c0,12.4-4.3,22.7-13,31c-8.3,8.7-18.7,13-31,13c-12.3,0-22.9-4.3-31.5-13
		c-8.3-8.3-12.5-18.7-12.5-31c0-12,4.2-22.4,12.5-31c8.7-8.7,19.2-13,31.5-13C438,26,448.4,30.3,457.1,39z"/>
</g>
</svg>
