<?xml version="1.0" encoding="utf-8"?>
<!-- Generator: Adobe Illustrator 25.0.1, SVG Export Plug-In . SVG Version: 6.00 Build 0)  -->
<svg version="1.1" id="Layer_1" xmlns="http://www.w3.org/2000/svg" xmlns:xlink="http://www.w3.org/1999/xlink" x="0px" y="0px"
	 viewBox="0 0 701.9 284.6" style="enable-background:new 0 0 701.9 284.6;" xml:space="preserve">
<style type="text/css">
	.st0{fill:#1B9CD8;}
	.st1{fill:#A2C31A;}
	.st2{fill:#09232F;}
	.st3{fill:#FFFFFF;}
</style>
<g>
	<g>
		<g>
			<path class="st0" d="M537.6,107.5c7.3,1.2,15,3.2,22.8,5.8c-6,2.6-11.9,5.5-17.8,8.7c-1.7,0.9-3.3,1.8-4.9,2.8v6.1
				c2.4-1.5,4.9-2.9,7.5-4.3c7.5-4.1,15.2-7.6,22.9-10.6c7.6,3,15.3,6.5,22.9,10.6c4.9,2.7,9.6,5.5,14.1,8.4v-6.3
				c-3.7-2.3-7.6-4.6-11.6-6.8c-5.9-3.2-11.9-6.1-17.8-8.7c10.2-3.4,20.1-5.7,29.4-6.7v-6.4c-11.7,1.7-24.3,5.1-37,10
				c-10.3-4-20.6-7-30.3-8.9V107.5z"/>
			<path class="st0" d="M590.8,210.7c-7.5,4.1-15.2,7.6-22.9,10.6c-7.6-3-15.3-6.5-22.9-10.6c-2.5-1.4-5-2.8-7.5-4.3v1.7
				c0,1.5,0,3,0.1,4.5c1.6,0.9,3.2,1.8,4.8,2.7c5.9,3.2,11.9,6.1,17.8,8.7c-7,2.4-13.9,4.2-20.6,5.4c0.5,2,1.1,4,1.7,5.7
				c8.6-1.9,17.5-4.6,26.4-8.1c11.1,4.3,22.2,7.4,32.7,9.3c0.7-1.8,1.3-3.8,1.9-6c-8.6-1.2-17.7-3.3-27-6.4c6-2.6,12-5.5,17.8-8.7
				c4-2.2,7.8-4.4,11.6-6.7c0-1,0-2.1,0-3.2v-3.2C600.4,205.2,595.7,208,590.8,210.7z"/>
			<path class="st0" d="M662.5,117.3c-6.3-11.7-20.7-18.2-40.6-18.3c0,2.3,0,4.7,0,7.2c15.1,1.2,26,6.9,31.2,16.3
				c6.1,11.2,3.1,25.8-6.8,40.9c-6.7-7.8-14.9-15.5-24.4-22.8c0,2.4,0,4.7,0,7.1c8.2,6.8,15.1,14,20.6,21.1
				c-5.4,7.1-12.4,14.3-20.6,21.1c0,2.7,0,5,0,7.1c9.5-7.3,17.8-15.1,24.4-22.8c9.9,15,12.9,29.7,6.8,40.9
				c-5.5,10.1-17.7,15.9-34.5,16.5c-0.6,2.4-1.4,4.7-2.4,6.9c1.6,0.1,3.3,0.1,4.9,0.1c20.2,0,34.9-6.5,41.4-18.4
				c7.6-13.9,2.5-32.6-11.8-51.4C665,149.9,670.1,131.2,662.5,117.3z"/>
			<path class="st0" d="M519.1,231.4c-17.7-0.2-30.6-6-36.3-16.5c-5.9-10.9-3.5-25.3,6.8-40.9c7.4,8.7,16.6,17.1,27,24.8v-7
				c-9.1-7.4-17-15.2-23.2-23.3c6.2-8,14-15.9,23.2-23.3v-7c-10.4,7.8-19.6,16.2-27,24.8c-10.3-15.6-12.7-30-6.8-40.9
				c5.4-10,17.4-15.8,33.9-16.5v-7c-0.6,0-1.3,0-1.9,0c-20.2,0-34.9,6.5-41.4,18.4c-7.1,13.1-3.4,30.7,10.5,49.6
				c0.5,0.6,0.9,1.2,1.4,1.8c-0.5,0.6-0.9,1.2-1.4,1.8C470,189.4,466.3,207,473.4,220c6.4,11.8,21.1,18.4,41.4,18.4
				c2.1,0,4.2-0.1,6.4-0.2C520.3,236.1,519.6,233.8,519.1,231.4z"/>
		</g>
		<path class="st1" d="M519.8,97.7c0-7.7-0.5-12.7-1.6-14.9c-0.8-1.7-2.6-2.5-5.4-2.5h-3.9c-2.4-0.1-3.5-0.5-3.5-1.1
			c0-1,0.8-1.5,2.5-1.5h35.9c1.8,0,2.6,0.5,2.6,1.5c0,0.4-0.2,0.7-0.5,0.8l-0.5,0.1H545c-4.9,0-7.9,1.3-9.2,4
			c-0.9,1.9-1.4,6.1-1.4,12.7v111.3c0,20.4,4.5,34.6,13.5,42.6c3.4,3,7.4,5.2,12.2,6.4c3.4,0.8,7.4,1.3,12,1.3
			c2.9,0,6.2-0.5,9.8-1.5c10-2.9,17.1-9.1,21.2-18.4c3.3-7.6,4.9-18.7,4.9-33V60c0-5-0.7-8.5-2-10.6c-1.7-2.7-4.8-4-9.3-4
			c-2.2,0-3.3-0.4-3.3-1.1s0.9-1.1,2.8-1.1h9.7c1.8,0,4.1,0,6.7-0.1h14.6c2.2,0,3.3,0.5,3.3,1.4c0,0.3-0.1,0.6-0.3,0.8
			c-4.1,0-7,0.8-8.7,2.3c-1.8,1.5-2.6,4.1-2.6,7.8c0,3.7,0,11.8-0.1,24.2c-0.1,12.4-0.1,106.2-0.1,123.1c0,10.4-1,19.6-2.9,27.4
			c-2.7,10.6-8.2,19-16.6,25.2c-8.7,6.5-19.3,9.7-31.8,9.7h-2.3c-1.1-0.1-2.2-0.2-3.3-0.3c-2.9-0.3-5.8-0.8-8.5-1.5
			c-7.8-2-14.1-5.4-18.9-10.2c-4.2-3.7-7.5-8.5-9.8-14.3c-3.2-7.9-4.8-17.8-4.8-29.6V97.7z"/>
		<path class="st1" d="M575.2,23.1c2.2,2.2,3.3,4.8,3.3,7.8c0,3.1-1.1,5.7-3.3,7.8c-2.1,2.2-4.7,3.3-7.8,3.3c-3.1,0-5.8-1.1-7.9-3.3
			c-2.1-2.1-3.2-4.7-3.2-7.8c0-3,1.1-5.6,3.2-7.8c2.2-2.2,4.8-3.3,7.9-3.3C570.4,19.9,573,20.9,575.2,23.1z"/>
	</g>
	<g>
		<g>
			<path class="st2" d="M50.7,106.6l0.4,0.8v25.4c1.1,6.1,4.2,9.1,9.1,9.1h25.4c6.1-1.1,9.1-4.2,9.1-9.1v-13.3c0-4.7,3.7-9,11-12.9
				l0.4,0.8v23.9c0,3.9-0.8,7.5-2.3,10.6h9.1c0.5,0.1,0.8,0.3,0.8,0.8v9.9c0,0.5-0.3,0.8-0.8,0.8H61.7c-11.1,0-18.3-5.6-21.6-16.7
				c-0.3-2.1-0.4-3.9-0.4-5.3v-11.7C39.7,114.8,43.4,110.5,50.7,106.6z M79.5,158.4c1.1,1.1,1.7,2.3,1.7,3.8c0,1.6-0.6,3-1.7,4
				c-1.2,1.1-2.6,1.7-4.1,1.7c-1.7,0-3.1-0.6-4.1-1.7c-1.1-1-1.7-2.3-1.7-4c0-1.5,0.6-2.8,1.7-4.1c1.2-0.9,2.6-1.3,4.1-1.3
				C76.9,156.8,78.2,157.4,79.5,158.4z"/>
			<path class="st2" d="M131.4,87.7l0.4,0.8v30.7c6.7-7.1,14.8-10.6,24.3-10.6h1.9c12.4,0,21.1,6.9,26.1,20.8
				c1,3.7,1.5,7.9,1.5,12.5h10.2c0.5,0.1,0.8,0.3,0.8,0.8v9.9c0,0.5-0.3,0.8-0.8,0.8h-85.3c-0.5,0-0.8-0.3-0.8-0.8v-9.9
				c0.1-0.5,0.3-0.8,0.8-0.8h9.9v-41.3C120.4,95.9,124.1,91.6,131.4,87.7z M131.8,141.9h41.3c0-10.5-2.9-17.4-8.7-20.5
				c-2.8-1.3-5.3-1.9-7.6-1.9c-8.3,0-14,2.4-17.1,7.2C136.3,130.2,133.6,135.3,131.8,141.9z"/>
			<path class="st2" d="M218.6,88.1l0.4,0.8v42.4c0,11.1-5.6,18.3-16.7,21.6c-2.1,0.3-3.9,0.4-5.3,0.4h-3.4c-0.5,0-0.8-0.3-0.8-0.8
				v-9.9c0.1-0.5,0.3-0.8,0.8-0.8h4.9c6.1-1.1,9.1-4.2,9.1-9.1v-31.8C207.6,96.3,211.2,92,218.6,88.1z"/>
			<path class="st2" d="M237.5,88.4l0.4,0.8v63.3c0,0.5-0.3,0.8-0.8,0.8h-9.9c-0.5,0-0.8-0.3-0.8-0.8v-51.2
				C226.5,96.6,230.2,92.4,237.5,88.4z"/>
			<path class="st2" d="M303.6,107c11,0,18.7,5.8,23.1,17.4c0.5,2.7,0.8,4.7,0.8,6.1c0,9.8-5.6,17-16.7,21.6
				c-2.9,0.8-5.4,1.1-7.6,1.1c-9.5,0-16.7-4.5-21.6-13.6c-1.5-3.2-2.3-6.5-2.3-9.9c0-10.2,5.9-17.6,17.8-22
				C300.4,107.3,302.5,107,303.6,107z M296.1,93.2c1.1,1.1,1.7,2.3,1.7,3.8c0,1.6-0.6,3-1.7,4c-1.2,1.1-2.6,1.7-4.1,1.7
				c-1.7,0-3.1-0.6-4.1-1.7c-1.1-1-1.7-2.3-1.7-4c0-1.5,0.6-2.8,1.7-4.1c1.2-0.9,2.6-1.3,4.1-1.3C293.4,91.6,294.8,92.1,296.1,93.2z
				 M291.9,130.5c0,6.6,3.9,10.4,11.7,11.4c7.6-1.1,11.4-4.9,11.4-11.4v-0.8c0-6.6-3.9-10.4-11.7-11.4c-5.7,0-9.5,3.3-11.4,9.9
				V130.5z M314.1,93.2c1.1,1.1,1.7,2.3,1.7,3.8c0,1.6-0.6,3-1.7,4c-1.2,1.1-2.6,1.7-4.1,1.7c-1.7,0-3.1-0.6-4.1-1.7
				c-1.1-1-1.7-2.3-1.7-4c0-1.5,0.6-2.8,1.7-4.1c1.2-0.9,2.6-1.3,4.1-1.3C311.4,91.6,312.8,92.1,314.1,93.2z"/>
			<path class="st2" d="M346.1,88.4l0.4,0.8v63.3c0,0.5-0.3,0.8-0.8,0.8h-9.9c-0.5,0-0.8-0.3-0.8-0.8v-51.2
				C335.1,96.6,338.8,92.4,346.1,88.4z"/>
			<path class="st2" d="M379.4,106.4c12.5,0,20.7,6.6,24.6,19.8c0.3,1.3,0.4,2.6,0.4,3.8v11.8h5.7c0.5,0.1,0.8,0.3,0.8,0.8v9.9
				c0,0.5-0.3,0.8-0.8,0.8h-7.6c-0.6,3-3.3,7-8.3,12.2c-5.8,4-10.9,6.1-15.2,6.1l-0.8-0.4c0-5.9,3.4-11.2,10.2-16l1.1-1.5v-0.4
				h-12.9c-9.7,0-17.1-5.7-22-17.1c-0.5-3.2-0.8-5.3-0.8-6.4c0-10.4,6.2-17.8,18.6-22.5C375.6,106.7,377.9,106.4,379.4,106.4z
				 M365.4,130.4c0,5.4,3.4,9.3,10.2,11.5h17.4v-11.5c0-7.1-4.3-11.3-12.9-12.5h-1.9C369.7,119.1,365.4,123.3,365.4,130.4z"/>
			<path class="st2" d="M431.7,106.6l0.4,0.8v23.9c0,11.1-5.6,18.3-16.7,21.6c-2.1,0.3-3.9,0.4-5.3,0.4h-2.3c-0.5,0-0.8-0.3-0.8-0.8
				v-9.9c0.1-0.5,0.3-0.8,0.8-0.8h3.8c6.1-1.1,9.1-4.2,9.1-9.1v-13.3C420.7,114.8,424.4,110.5,431.7,106.6z M431.3,93.2
				c1.1,1.1,1.7,2.3,1.7,3.8c0,1.6-0.6,3-1.7,4c-1.2,1.1-2.6,1.7-4.1,1.7c-1.7,0-3.1-0.6-4.1-1.7c-1.1-1-1.7-2.3-1.7-4
				c0-1.5,0.6-2.8,1.7-4.1c1.2-0.9,2.6-1.3,4.1-1.3C428.7,91.6,430.1,92.1,431.3,93.2z"/>
		</g>
		<g>
			<path class="st2" d="M65.6,207.6H73v39.7h-4.6v0.1l-20.8-26.8v26.7h-7.5v-39.7h6.1l19.4,24.6V207.6z"/>
			<path class="st2" d="M101.5,219.4h6.6v27.9h-6.5l-0.3-4.1c-1.6,3.3-5.9,4.9-9.1,4.9c-8.3,0.1-14.4-5-14.4-14.8
				c0-9.6,6.4-14.7,14.6-14.6c3.7,0,7.3,1.8,8.9,4.5L101.5,219.4z M84.8,233.3c0,5.3,3.7,8.5,8.3,8.5c10.9,0,10.9-16.9,0-16.9
				C88.4,224.9,84.8,228,84.8,233.3z"/>
			<path class="st2" d="M139.6,219.3l6.1,21l6.4-21h7.6l-9.7,28.1h-8l-2.9-8.3l-2.5-9.3l-2.5,9.3l-2.9,8.3h-8l-9.8-28.1h7.7l6.4,21
				l6.1-21H139.6z"/>
			<path class="st2" d="M187.8,219.4h6.6v27.9h-6.5l-0.3-4.1c-1.6,3.3-5.9,4.9-9.1,4.9c-8.3,0.1-14.4-5-14.4-14.8
				c0-9.6,6.4-14.7,14.6-14.6c3.7,0,7.3,1.8,8.9,4.5L187.8,219.4z M171,233.3c0,5.3,3.7,8.5,8.3,8.5c10.9,0,10.9-16.9,0-16.9
				C174.7,224.9,171,228,171,233.3z"/>
			<path class="st2" d="M210,211.5v7.9h7.7v5.9H210v12.1c0,2.7,1.5,4,3.6,4c1.1,0,2.3-0.3,3.3-0.8l1.9,5.9c-2,0.8-3.6,1.1-5.7,1.2
				c-6.1,0.2-10-3.2-10-10.2v-12.1h-5.2v-5.9h5.2v-7.2L210,211.5z"/>
			<path class="st2" d="M269.4,218.6l-12.9,17.2H255l-12.6-17.3v28.8h-7.5v-39.7h8.6l12.4,17.1l12.4-17.1h8.6v39.7h-7.5V218.6z"/>
			<path class="st2" d="M289.3,235.8c0.5,3.5,3.5,5.9,8.3,5.9c2.5,0,5.9-1,7.5-2.6l4.4,4.4c-2.9,3.1-7.8,4.5-12,4.5
				c-9.6,0-15.4-5.9-15.4-14.9c0-8.5,5.8-14.6,14.8-14.6c9.3,0,15.2,5.8,14.1,17.3H289.3z M304.4,230.1c-0.5-3.6-3.3-5.4-7.3-5.4
				c-3.7,0-6.8,1.8-7.8,5.4H304.4z"/>
			<path class="st2" d="M345.4,207.7v39.6h-6.5l-0.5-3.9c-2.2,3.3-5.6,4.5-9,4.5c-8.2,0-14.4-5.4-14.4-14.6
				c0-9.6,6.1-14.6,14.2-14.6c2.9,0,7.5,1.6,9.2,4.5v-15.5H345.4z M322,233.3c0,4.9,3.5,8.2,7.9,8.2c4.4,0,8.1-3.2,8.1-8.2
				c0-4.9-3.7-8.2-8.1-8.2C325.5,225.2,322,228.3,322,233.3z"/>
			<path class="st2" d="M358.9,211.5c0,5.4-8.2,5.4-8.2,0C350.8,206.1,358.9,206.1,358.9,211.5z M351.4,219.3v28h6.9v-28H351.4z"/>
			<path class="st2" d="M388.5,243.8c-3.2,3.2-6.6,4.4-10.8,4.4c-8.1,0-14.8-4.9-14.8-14.8s6.7-14.8,14.8-14.8c4,0,7,1.1,10.1,4.1
				l-4.4,4.6c-1.6-1.5-3.7-2.2-5.6-2.2c-4.6,0-8,3.4-8,8.3c0,5.3,3.6,8.2,7.9,8.2c2.2,0,4.4-0.6,6.1-2.3L388.5,243.8z"/>
			<path class="st2" d="M413.7,219.4h6.6v27.9h-6.5l-0.3-4.1c-1.6,3.3-5.9,4.9-9.1,4.9c-8.3,0.1-14.4-5-14.4-14.8
				c0-9.6,6.4-14.7,14.6-14.6c3.7,0,7.3,1.8,8.9,4.5L413.7,219.4z M397,233.3c0,5.3,3.7,8.5,8.3,8.5c10.9,0,10.9-16.9,0-16.9
				C400.6,224.9,397,228,397,233.3z"/>
			<path class="st2" d="M433,207.7v39.6h-6.9v-39.6H433z"/>
		</g>
	</g>
</g>
</svg>
