<?xml version="1.0" encoding="utf-8"?>
<!-- Generator: Adobe Illustrator 25.0.1, SVG Export Plug-In . SVG Version: 6.00 Build 0)  -->
<svg version="1.1" id="Layer_1" xmlns="http://www.w3.org/2000/svg" xmlns:xlink="http://www.w3.org/1999/xlink" x="0px" y="0px"
	 viewBox="0 0 595.3 292" style="enable-background:new 0 0 595.3 292;" xml:space="preserve">
<style type="text/css">
	.st0{fill:#00A3C9;}
	.st1{fill:none;}
	.st2{fill:#60A83C;}
</style>
<g>
	<path class="st0" d="M276.3,228h-10.9V97.1h10.9V228z"/>
	<path class="st0" d="M556.6,138.1v54.9c0,15.9-9.1,24.8-24,24.8h-16.5h-0.8H481h-1.6h-33.5h-1.6h-33.5h-1.6h-28v-79.7h-34.7
		c-27.6,0-44.8,22.4-44.8,46.4c0,24.2,19,43.6,44.8,43.6h23.8c-0.2,15.5-10.9,25-27.2,24.4c-5-0.2-11.7-0.6-20-5.2
		c0.6,5,1.2,10.1,1.2,10.1c2.2,1.4,11.7,4.8,20,5.4c20.6,1.2,36.9-11.1,36.9-34.5V228h28h1.6h33.5h1.6h33.5h1.6h34.3h0.8h19.4
		c29.6,0,32.1-26.2,32.1-36.7v-53.2H556.6z M370.3,217.7h-23.8c-20.8,0-32.7-17.7-32.7-35.1c0-15.3,11.9-34.5,32.7-34.5h23.8V217.7z
		"/>
	<rect x="529.9" y="112.2" class="st0" width="12.7" height="13.5"/>
	<g>
		<g>
			<path class="st0" d="M390.1,255.5c-2.7,0-5.4-2.5-5.3-6c0.1-5.3,4.3-7.2,10.3-6.8v-1.5l1.9-0.6l0,10.7c0.1,2.7,1.6,4.2,4.1,4.2
				h1.9v1.8h-2.4c-3.9,0-5.1-2.7-5.4-4.8C395.3,252.6,393.9,255.5,390.1,255.5z M390.4,253.9c5.1,0,4.7-5.6,4.6-9.4
				c-2.3,0.1-8-0.8-8.4,5C386.7,250.8,387.4,253.9,390.4,253.9z M390.7,235.9h-2.2v2.4h2.2V235.9z M395.5,235.9h-2.2v2.4h2.2V235.9z
				"/>
			<path class="st0" d="M402.7,257.3v-1.8h2.8c2.6,0,4.1-1.5,4.1-4.3V243h1.9v7.5c0.1,2.9,1.5,5.1,4.7,5.1h1.4v1.8h-1.1
				c-2.7,0-4.8-1.7-5.5-3.4c-0.6,1.7-1.9,3.4-5.1,3.4H402.7z M406.9,263.4h-2.2V261h2.2V263.4z M411.7,263.4h-2.2V261h2.2V263.4z"/>
			<path class="st0" d="M417.4,257.3v-1.8h2.8c2.6,0,4.1-1.5,4.1-4.3V243h1.9v7.5c0.1,2.9,1.5,5.1,4.7,5.1h1.4v1.8h-1.1
				c-2.7,0-4.8-1.7-5.5-3.4c-0.6,1.7-1.9,3.4-5.1,3.4H417.4z M426.6,263.3h-2.2V261h2.2V263.3z"/>
			<path class="st0" d="M438.7,248.9c2.6-5.1,7.3-6.5,11.1-6.5c4.2,0,8.9,2.4,8.9,7.7c0,2.3-0.9,4.1-2.3,5.3h7v1.8h-31.4v-1.8h5.1
				v-20.7h1.8L438.7,248.9z M451.2,255.5c3.1-0.1,5.4-2.4,5.4-5.3c0-4.5-4.2-6.1-6.6-6.1c-9.4,0-11.5,7.8-11.8,11.4H451.2z"/>
			<path class="st0" d="M463.2,257.3v-1.8h3c2.6,0,4.1-1.5,4.1-4.3v-16.5h1.9V251c0,1.8-0.4,6.3-5.5,6.3H463.2z"/>
			<path class="st0" d="M479.1,257.3h-1.9v-22.5h1.9V257.3z"/>
			<path class="st0" d="M508.7,257.3h-12.5c-4.1,0-6.8-2.4-7.3-5.5c-0.3-1.6,0-3.7,1.2-5.2c0.4,0.3,1,0.8,1.3,1.1
				c-0.8,1.1-1,2.8-0.7,4c0.6,2.2,2.5,3.8,5.2,3.8h12.2c2.6,0,4.1-1.5,4.1-4.3V243h1.9v7.5c0.1,2.9,1.5,5.1,4.7,5.1h1.4v1.8h-1.1
				c-2.7,0-4.8-1.7-5.5-3.4C513.2,255.6,511.8,257.3,508.7,257.3z M502.6,260.9h-2.1v2.4h2.1V260.9z"/>
			<path class="st0" d="M526.7,248.9c2.6-5.1,7.3-6.5,11.1-6.5c4.2,0,8.9,2.4,8.9,7.7c0,2.3-0.9,4.1-2.3,5.3h7v1.8H520v-1.8h5.1
				v-20.7h1.8L526.7,248.9z M539.2,255.5c3.1-0.1,5.4-2.4,5.4-5.3c0-4.5-4.2-6.1-6.6-6.1c-9.4,0-11.5,7.8-11.8,11.4H539.2z"/>
			<path class="st0" d="M551.2,257.3v-1.8h3c2.6,0,4.1-1.5,4.1-4.3v-16.5h1.9V251c0,1.8-0.4,6.3-5.5,6.3H551.2z"/>
			<path class="st0" d="M567.1,257.3h-1.9v-22.5h1.9V257.3z"/>
		</g>
	</g>
	<g>
		<path class="st2" d="M196.2,257.3v-27h3.7l8.5,13.6c2,3.2,3.5,6,4.8,8.8l0.1,0c-0.3-3.6-0.4-6.9-0.4-11.1v-11.3h3.2v27h-3.5
			l-8.4-13.7c-1.8-3-3.6-6.1-5-9l-0.1,0c0.2,3.4,0.3,6.6,0.3,11.1v11.5H196.2z"/>
		<path class="st2" d="M226.4,248.8l-2.8,8.5h-3.5l9-27h4.1l9,27h-3.7l-2.8-8.5H226.4z M235.1,246.1l-2.6-7.8
			c-0.6-1.8-1-3.4-1.4-4.9H231c-0.4,1.6-0.8,3.2-1.3,4.9l-2.6,7.8H235.1z"/>
		<path class="st2" d="M248.4,257.3l-6.7-27h3.6l3.1,13.6c0.8,3.4,1.5,6.7,2,9.3h0.1c0.4-2.7,1.3-5.9,2.2-9.4l3.5-13.6h3.6L263,244
			c0.7,3.2,1.5,6.4,1.8,9.2h0.1c0.6-3,1.3-6,2.1-9.3l3.5-13.6h3.5l-7.5,27h-3.6l-3.3-14c-0.8-3.4-1.4-6.1-1.7-8.8h-0.1
			c-0.5,2.7-1.1,5.3-2,8.8l-3.8,14H248.4z"/>
		<path class="st2" d="M279.4,248.8l-2.8,8.5h-3.5l9-27h4.1l9,27h-3.7l-2.8-8.5H279.4z M288.1,246.1l-2.6-7.8
			c-0.6-1.8-1-3.4-1.4-4.9H284c-0.4,1.6-0.8,3.2-1.3,4.9l-2.6,7.8H288.1z"/>
		<path class="st2" d="M302.6,230.3v11.3h12.8v-11.3h3.5v27h-3.5v-12.6h-12.8v12.6h-3.4v-27H302.6z"/>
	</g>
	<g>
		<path class="st0" d="M183.2,195.6v-26.8h3.7l8.5,13.6c2,3.1,3.5,6,4.7,8.7l0.1,0c-0.3-3.6-0.4-6.9-0.4-11v-11.2h3.2v26.8h-3.4
			l-8.4-13.6c-1.8-3-3.6-6.1-4.9-9l-0.1,0c0.2,3.4,0.3,6.6,0.3,11.1v11.5H183.2z"/>
	</g>
	<path class="st1" d="M128.4,159.5c-15-3.7-30.3-5.6-45.8-5.9c-2.8,0-5.6-0.1-8.3,0c-9.1,0.3-18.1,1.6-26.5,5.4
		c-5.3,2.4-10.1,5.6-13.4,10.6c-2.3,3.5-2.6,7.3-1.4,11.2c1.2,4.1,4,6.9,7.4,9.2c4.2,2.9,8.9,4.5,13.8,5.6c13.9,3,27.8,2.9,41.8,0.7
		c7.2-1.1,14-3.1,20.4-6.8c5.8-3.4,9.9-8,12.1-14.3c1.6-4.3,1.7-8.8,1.7-13.3C130.2,160.5,129.8,159.9,128.4,159.5z"/>
	<path class="st2" d="M215.9,176.6c-3.8-17-24-23.7-37.4-12.5c-1.8,1.5-3.2,3.4-5,5.3c-1.6-0.7-3.2-1.5-4.8-2.3
		c-0.4-0.2-0.8-0.7-0.9-1.2c-0.4-1.9-1.6-3.1-3.4-3.8c-7.9-2.9-15.8-5.8-23.8-8.6c-1-0.4-1.4-0.9-1.3-1.9c0.1-1.1-0.4-2.2,1.3-2.8
		c4.5-1.4,8.4-4,12-7.1c0.9-0.8,1.3-2.3,2-3.4c0.2-0.4,0.4-1,0.7-1.3c4.7-4.3,9-9.1,12.1-14.8c2.6-4.8,5.4-9.6,7.6-14.6
		c6.5-15.3,9.3-31.4,11.2-47.8c0.9-7.4-2.1-12-9-14.7c-4.6-1.8-9.2-3.4-13.4-6.1c-0.8-0.5-1.7-0.7-2.6-1c-1-0.3-1.5-0.8-1.9-1.8
		c-1.4-3.7-5.4-5.3-8.9-3.7c-3.4,1.6-4.9,5.6-3.2,9c1.7,3.4,5.8,4.6,9.3,2.8c0.4-0.2,0.9-0.5,1.3-0.4c2.9,1,5.9,1.9,8.9,2.5
		c3.1,0.7,6.1,2.3,9.1,3.4c4,1.5,5.4,3.5,5.5,7.8c0,1.1,0,2.2-0.2,3.3c-1.6,9.1-3,18.3-5.1,27.4c-2.8,11.9-7,23.4-14.3,33.5
		c-2.7,3.8-6.1,7.2-9.2,10.7c-0.4,0.4-1.2,0.7-1.8,0.7c-1.6-0.1-2.8,0.5-4,1.4c-2,1.4-4,2.8-6.1,4.1c-3.7,2.2-7.5,2.4-11.2,0.1
		c-2.2-1.4-4.4-2.9-6.6-4.3c-0.9-0.5-1.9-1.3-2.8-1.2c-2,0.2-3-0.9-4.1-2c-1.2-1.2-2.4-2.4-3.5-3.7c-7.2-8.3-11.9-18-15.5-28.3
		c-3.8-10.8-6-21.9-7.5-33.2c-0.4-3-0.9-6-0.9-9.1c0-3.4,1.5-6,5-7.1c2.4-0.8,4.6-1.9,7-2.8c1.4-0.5,2.7-1,4.1-1.4
		c1.1-0.3,2.2-0.2,3.3-0.5c1.1-0.3,2.1-0.9,3.2-1.2c0.7-0.2,1.6-0.2,2.2,0.1c3.6,1.7,7.7,0.3,9.2-3.1c1.5-3.5-0.1-7.5-3.5-8.9
		c-3.7-1.5-7.5,0.3-8.9,4.1c-0.1,0.4-0.4,1-0.7,1.1c-2.7,1.2-5.3,2.4-7.9,3.9c-3,1.7-6.4,2.8-9.8,3.9c-5.6,1.9-8.2,6-8.3,11.5
		c0,4.3,0.7,8.6,1.3,12.8c1.7,12,4.3,23.7,8.6,35c4.7,12.2,11,23.3,20.8,32.2c0.4,0.3,0.5,1,0.7,1.5c0.6,1.1,0.9,2.4,1.8,3.2
		c3.7,3.2,7.7,5.7,12.4,7.4c0.4,0.2,0.7,0.7,1.1,1c-0.5,0.1-1,0.3-1.5,0.2c-15-3.5-30.1-5.3-45.5-5.7c-9.3-0.2-18.6,0.2-27.7,2.4
		c-9.1,2.2-17.5,5.7-24.4,12.4c-6.7,6.5-9.6,14.3-7,23.5c1.5,5.4,4.6,9.8,9,13.3c6.5,5.2,14.1,7.7,22.1,9.2
		c10.2,1.9,20.4,2.1,30.7,1.5c10.2-0.6,20.2-2.3,29.6-6.5c8-3.6,14.7-8.8,19-16.5c2.3-4.1,3.8-8.6,4.4-13.4c0.3-2.5,0.3-5,0.5-7.7
		c0.8,0.2,1.5,0.4,2.2,0.6c6.4,2.4,12.8,4.9,19.3,7.2c1.2,0.4,2.8,0.7,3.8,0.2c1.6-0.8,2.8-0.4,4.1,0.4c0.7,0.4,1.4,0.8,2.1,1
		c0.9,0.4,1.1,0.8,0.7,1.8c-1.3,3.5-1.6,7-1.2,10.7c1.6,13.2,14,22.3,27.4,19.7C210.6,201.9,218.8,189.6,215.9,176.6z M128.5,175.2
		c-2.3,6.3-6.3,10.9-12.1,14.3c-6.3,3.7-13.2,5.7-20.4,6.8c-14,2.1-27.9,2.2-41.8-0.7c-4.9-1-9.6-2.7-13.8-5.6
		c-3.4-2.3-6.2-5.1-7.4-9.2c-1.1-3.9-0.9-7.6,1.4-11.2c3.3-5,8-8.2,13.4-10.6c8.4-3.8,17.4-5.1,26.5-5.4c2.8-0.1,5.6,0,8.3,0
		c15.5,0.3,30.7,2.2,45.8,5.9c1.4,0.3,1.8,0.9,1.8,2.3C130.2,166.4,130,170.9,128.5,175.2z M193.1,201.3c-10.8,0-19.5-8.6-19.5-19.1
		c0-10.6,8.7-19.1,19.5-19.1c10.8,0,19.5,8.6,19.5,19.1C212.6,192.8,203.9,201.3,193.1,201.3z"/>
	<path class="st0" d="M193.6,131.6c-19.2,0-31.9,11.2-38,26.1c1.9,0.7,3.9,1.4,5.8,2.1l3.4,1.2c0.6,0.2,1.2,0.5,1.6,0.9
		c4.3-11.2,13.1-20.4,27.2-20.4h30.9v38.1c0,16.9-8.5,38.5-30.9,38.5c-21.4,0-30.5-21.2-30.5-38.5c0-2.5,0.2-5,0.6-7.6
		c-0.1,0-0.2,0-0.3,0c-1.1,0-2.3-0.3-2.8-0.5c-2.7-1-5.4-2-8.1-3c-0.7,3.6-1,7.4-1,11.1c0,24.2,13.5,48.4,42.1,48.4
		c29.2,0,42.8-24.2,42.8-48.4v-48H193.6z"/>
</g>
</svg>
